<svg version="1.2" xmlns="http://www.w3.org/2000/svg" viewBox="0 0 1792 1792" width="1792" height="1792">
	<title>github-svg</title>
	<style>
		.s0 { fill: #ffffff } 
	</style>
	<path id="Layer" fill-rule="evenodd" class="s0" d="m1664 416v960q0 119-84.5 203.5-84.5 84.5-203.5 84.5h-224q-16 0-24.5-1-8.5-1-19.5-5-11-4-16-14.5-5-10.5-5-27.5v-239q0-97-52-142 57-6 102.5-18 45.5-12 94-39 48.5-27 81-66.5 32.5-39.5 53-105 20.5-65.5 20.5-150.5 0-121-79-206 37-91-8-204-28-9-81 11-53 20-92 44l-38 24q-93-26-192-26-99 0-192 26-16-11-42.5-27-26.5-16-83.5-38.5-57-22.5-86-13.5-44 113-7 204-79 85-79 206 0 85 20.5 150 20.5 65 52.5 105 32 40 80.5 67 48.5 27 94 39 45.5 12 102.5 18-40 36-49 103-21 10-45 15-24 5-57 5-33 0-65.5-21.5-32.5-21.5-55.5-62.5-19-32-48.5-52-29.5-20-49.5-24l-20-3q-21 0-29 4.5-8 4.5-5 11.5 3 7 9 14 6 7 13 12l7 5q22 10 43.5 38 21.5 28 31.5 51l10 23q13 38 44 61.5 31 23.5 67 30 36 6.5 69.5 7 33.5 0.5 55.5-3.5l23-4q0 38 0.5 103 0.5 65 0.5 68 0 22-11 33.5-11 11.5-22 13-11 1.5-33 1.5h-224q-119 0-203.5-84.5-84.5-84.5-84.5-203.5v-960q0-119 84.5-203.5 84.5-84.5 203.5-84.5h960q119 0 203.5 84.5 84.5 84.5 84.5 203.5zm-1184 875q9 12 0 19-8 6-17-7-9-13 0-18 9-7 17 6zm-61-60q-5 7-13 2-10-5-7-12 3-5 13-2 10 5 7 12zm31 34q-6 7-16-3-9-11-2-16 6-6 16 3 9 11 2 16zm129 112q-4 12-19 6-17-4-13-15 4-11 19-7 16 5 13 16zm63 5q0 11-16 11-17 2-17-11 0-11 16-11 17-2 17 11zm58-10q2 10-14 14-16 4-18-8-2-12 14-15 16-2 18 9zm-178-20q-8 9-20-3-13-11-4-19 8-9 20 3 12 11 4 19z"/>
</svg>